Coordinates
version=1
nRows=15
nColumns=34
inDegrees=yes

Units are S.I. units (second, meters, Newtons, ...)
If the header above contains a line with 'inDegrees', this indicates whether rotational values are in degrees (yes) or radians (no).

endheader
time	pelvis_tilt	pelvis_list	pelvis_rotation	pelvis_tx	pelvis_ty	pelvis_tz	hip_flexion_r	hip_adduction_r	hip_rotation_r	knee_angle_r	ankle_angle_r	subtalar_angle_r	mtp_angle_r	hip_flexion_l	hip_adduction_l	hip_rotation_l	knee_angle_l	ankle_angle_l	subtalar_angle_l	mtp_angle_l	lumbar_extension	lumbar_bending	lumbar_rotation	arm_flex_r	arm_add_r	arm_rot_r	elbow_flex_r	pro_sup_r	arm_flex_l	arm_add_l	arm_rot_l	elbow_flex_l	pro_sup_l
      8.26666670	      3.12827331	      6.94947402	     -7.24156819	      0.30522299	      0.84439207	      0.04040480	     -3.10125115	     -0.75417498	     -2.02379933	      6.43365844	      8.58991023	     -9.71604328	      0.00000000	     32.31838641	      5.26252106	      5.35745983	     21.02375355	      0.99692475	    -12.04480915	      0.00000000	     -9.85921047	     -5.31544334	      5.45233700	     50.50648426	      9.14424611	     70.97984387	    129.90002662	     85.85027134	     40.32558377	      8.89946356	     70.76705784	    127.77934014	     68.87344561
      8.28333330	      3.27559509	      7.19263648	     -7.20611161	      0.31051037	      0.84460737	      0.03939234	     -3.34613668	     -1.00018112	     -2.51740511	      6.95406027	      7.73807548	     -9.43742716	      0.00000000	     32.57627096	      5.55880745	      5.25549553	     19.44173601	      0.41114205	    -11.57612835	      0.00000000	     -9.68042622	     -5.50668902	      5.69092718	     50.42483666	      9.14972542	     71.00953584	    129.88263636	     85.85677666	     40.05365301	      9.18091978	     71.12889797	    128.16427383	     68.93237693
      8.30000000	      3.39599880	      7.45263554	     -7.22934579	      0.31228550	      0.84574704	      0.04227211	     -3.79673336	     -1.18920429	     -3.04251686	      7.17645658	      6.57802717	     -9.02291074	      0.00000000	     32.64621513	      5.76113595	      4.78856053	     17.27629342	     -0.53585086	    -10.93569503	      0.00000000	     -9.43935909	     -5.76016146	      5.93883669	     50.04405593	      9.12350542	     71.04625763	    129.85128199	     85.87189574	     39.62318134	      9.22653730	     71.55212188	    128.43941113	     68.98588066
      8.31666670	      3.67687119	      7.66171807	     -7.21453649	      0.31279080	      0.84506924	      0.04479590	     -4.30360522	     -1.32660385	     -3.24270585	      7.33565891	      6.13161197	     -8.84837512	      0.00000000	     32.40799785	      5.90775589	      4.26736135	     15.09083150	     -1.32190194	    -10.23127914	      0.00000000	     -9.37990983	     -6.14366153	      5.94319866	     49.51274116	      9.11208654	     71.11877115	    129.85956415	     85.92871067	     39.48034408	      9.18994362	     71.97734073	    128.53534293	     69.03850733
      8.33333330	      3.90761928	      7.76791667	     -7.11104523	      0.31372533	      0.84633292	      0.04654344	     -4.52228854	     -1.34398279	     -3.30105593	      7.81027931	      5.84226361	     -8.79104149	      0.00000000	     32.07339434	      6.00335859	      3.87355430	     12.90150393	     -2.29657306	     -9.39482118	      0.00000000	     -9.40809275	     -6.33819614	      5.88002595	     48.97765965	      9.06715788	     71.23968881	    129.83947027	     85.99817959	     39.36174505	      8.99854300	     72.16315792	    128.41349426	     69.04714176
      8.35000000	      4.12120450	      7.69717116	     -7.00287306	      0.31319042	      0.84386004	      0.04902072	     -4.46366591	     -1.12402176	     -2.96935532	      8.62126393	      6.24415940	     -8.91848817	      0.00000000	     31.82853845	      5.88315348	      3.82385872	     11.27045525	     -3.09366377	     -8.60101188	      0.00000000	     -9.60270488	     -6.41251189	      5.81286117	     48.76300601	      9.06631979	     71.23092089	    129.82686668	     86.04606302	     39.43178612	      8.55675995	     72.13901641	    128.25829189	     69.03564791
      8.36666670	      4.44176844	      7.76095126	     -7.00767757	      0.31426937	      0.84324710	      0.05147680	     -4.42040588	     -1.01407288	     -2.28016401	      9.37804936	      7.24450359	     -9.22962855	      0.00000000	     31.33135979	      5.74303292	      3.22545146	      9.87999160	     -3.68042192	     -7.90429883	      0.00000000	     -9.87798631	     -6.77631777	      5.64452527	     48.70984450	      9.16553030	     71.25509968	    129.60829050	     86.15380942	     39.52443395	      8.38359426	     72.27956490	    128.18158481	     69.01834752
      8.38333330	      4.68726734	      7.65409724	     -6.62119417	      0.31496638	      0.83532481	      0.05339609	     -4.10161569	     -0.70200721	     -1.87079312	     10.74200953	      8.31619363	     -9.76654880	      0.00000000	     31.14427047	      5.63161615	      3.24526746	      9.04626482	     -4.07158823	     -7.32797021	      0.00000000	    -10.16467941	     -6.79058317	      5.45563516	     49.07987434	      9.27781799	     70.97617285	    129.62699292	     86.22069077	     40.04905750	      8.36940133	     72.24569984	    128.32742355	     69.01596582
      8.40000000	      4.91998384	      7.53064168	     -6.43923970	      0.31594560	      0.83539598	      0.05513290	     -3.82057683	     -0.43360314	     -1.26652493	     11.92792614	      9.29428487	    -10.29553152	      0.00000000	     30.79076809	      5.39068922	      3.04908924	      8.17122673	     -4.34384605	     -6.84493918	      0.00000000	    -10.29345279	     -6.83602772	      5.34653791	     49.32595568	      9.39424544	     70.59851134	    129.49697201	     86.32464022	     40.37769455	      8.52724082	     72.40713791	    128.76652333	     69.02642852
      8.41666670	      5.16244756	      7.12838260	     -6.15899643	      0.31670716	      0.82991773	      0.05696663	     -3.36777524	      0.12202193	     -0.80268748	     13.50593174	     10.39381586	    -10.88138826	      0.00000000	     30.47146410	      4.94106354	      3.17703399	      7.37304817	     -4.28088810	     -6.52455794	      0.00000000	    -10.53871668	     -6.56361836	      5.20995333	     49.51128221	      9.56311297	     70.37435578	    129.53060406	     86.39224177	     40.79512811	      8.64368316	     72.37783166	    129.00724350	     69.03098896
      8.43333330	      5.43601143	      6.78905448	     -6.02118249	      0.31875713	      0.82843478	      0.05850223	     -2.96117035	      0.64256953	      0.00394890	     15.24494574	     11.30275296	    -11.87428033	      0.00000000	     29.99852580	      4.52855674	      2.77192668	      6.59622532	     -3.86242204	     -5.84501954	      0.00000000	    -10.83142539	     -6.31855442	      5.06244671	     49.90459722	      9.71837981	     70.27219927	    129.40655007	     86.72259250	     41.08618454	      8.83354331	     73.01192124	    129.91713371	     69.08847399
      8.45000000	      5.66383497	      6.31606566	     -5.90211492	      0.31866835	      0.82558107	      0.05900840	     -2.51083381	      1.23836122	     -0.02393430	     16.80186764	     11.58869410	    -12.18205384	      0.00000000	     29.51156872	      4.09519024	      2.86615953	      5.88270426	     -3.81387028	     -5.62828718	      0.00000000	    -11.06367458	     -5.96589095	      4.74140532	     49.83401727	      9.58606046	     70.25394388	    129.42890160	     86.76528740	     41.10069010	      9.04041000	     73.11267871	    130.01753082	     69.09500588
      8.46666670	      5.92694786	      5.85763553	     -5.83088505	      0.31850660	      0.82117211	      0.06120074	     -1.84373757	      1.96825809	      0.40784877	     19.01691142	     12.51740276	    -13.19081276	      0.00000000	     29.20203100	      3.58075716	      2.86134597	      5.58960049	     -3.61736772	     -5.00253391	      0.00000000	    -11.72051209	     -5.56691468	      4.57028993	     50.46908499	      9.59796478	     70.09215978	    129.41868626	     86.99145869	     41.78267446	      9.26288001	     73.45219692	    130.50768256	     69.13314489
      8.48333330	      6.22284215	      5.38004810	     -5.93324230	      0.31717410	      0.81853301	      0.06151826	     -1.22592032	      2.52830347	      0.47973922	     20.89086344	     12.62260429	    -13.41804710	      0.00000000	     28.74199934	      3.09714911	      2.80455200	      5.13606577	     -3.45893040	     -4.91025804	      0.00000000	    -12.20973689	     -5.13618930	      4.20521778	     50.32457086	      9.30628710	     70.06532501	    129.37907532	     87.04213051	     41.78485134	      9.32540322	     73.60652626	    130.59475155	     69.14157752
      8.50000000	      6.29958974	      5.13919047	     -6.19989424	      0.31771500	      0.80538720	      0.06324421	      0.10973255	      3.09868589	      1.64511662	     23.78993479	     14.10539578	    -14.91128751	      0.00000000	     28.79052888	      2.65711201	      2.35967604	      5.09956225	     -2.62908448	     -4.02347292	      0.00000000	    -12.71020489	     -4.77695225	      4.25364169	     51.11293994	      9.71368220	     69.87225822	    129.21907946	     87.66230819	     42.59825970	      9.22297282	     73.91191918	    131.50515100	     69.23723029
